<svg xmlns:xlink="http://www.w3.org/1999/xlink"  width="291" height="194" viewBox="0 0 291 194" fill="none" xmlns="http://www.w3.org/2000/svg">
<path d="M193.13 177.833L192.799 177.243C193.289 176.847 193.776 176.445 194.259 176.037L194.601 176.619C194.114 177.03 193.624 177.435 193.13 177.833Z" fill="#CCCCCC"/>
<path d="M141.144 194L141.14 193.336C142.45 193.326 143.775 193.288 145.077 193.224L145.108 193.888C143.797 193.953 142.464 193.99 141.144 194ZM137.179 193.946C135.864 193.9 134.532 193.826 133.22 193.724L133.269 193.062C134.571 193.162 135.894 193.236 137.201 193.282L137.179 193.946ZM149.063 193.608L149.005 192.946C150.306 192.826 151.622 192.677 152.918 192.501L153.003 193.16C151.698 193.337 150.373 193.487 149.063 193.608V193.608ZM129.273 193.335C127.963 193.177 126.642 192.99 125.345 192.777L125.448 192.121C126.735 192.332 128.048 192.518 129.349 192.675L129.273 193.335ZM156.921 192.543L156.81 191.889C158.096 191.658 159.396 191.396 160.673 191.11L160.812 191.76C159.525 192.048 158.216 192.311 156.921 192.543V192.543ZM121.444 192.051C120.154 191.783 118.853 191.482 117.575 191.158L117.731 190.513C119 190.835 120.292 191.133 121.573 191.4L121.444 192.051ZM164.667 190.809L164.502 190.166C165.766 189.825 167.039 189.452 168.288 189.057L168.479 189.692C167.222 190.09 165.939 190.466 164.667 190.809V190.809ZM113.738 190.096C112.474 189.717 111.199 189.304 109.949 188.87L110.157 188.24C111.398 188.672 112.664 189.082 113.92 189.458L113.738 190.096ZM172.243 188.412L172.026 187.786C173.257 187.338 174.496 186.856 175.708 186.355L175.95 186.971C174.73 187.476 173.482 187.961 172.243 188.412V188.412ZM106.214 187.481C104.983 186.993 103.747 186.472 102.541 185.932L102.8 185.323C103.998 185.859 105.226 186.376 106.448 186.861L106.214 187.481ZM179.596 185.372L179.328 184.767C180.52 184.213 181.715 183.626 182.881 183.023L183.173 183.617C181.999 184.224 180.796 184.814 179.596 185.372V185.372ZM98.9347 184.227C97.7503 183.636 96.5619 183.01 95.4026 182.369L95.7105 181.784C96.8619 182.421 98.0422 183.042 99.2184 183.63L98.9347 184.227ZM186.675 181.709L186.359 181.129C187.5 180.475 188.644 179.788 189.757 179.087L190.096 179.653C188.975 180.359 187.824 181.051 186.675 181.709ZM91.9501 180.36C90.8196 179.67 89.6869 178.945 88.5831 178.206L88.9377 177.649C90.0338 178.384 91.1589 179.104 92.2816 179.789L91.9501 180.36ZM85.3073 175.91C84.2372 175.126 83.1676 174.307 82.1281 173.476L82.5266 172.952C83.5589 173.777 84.6213 174.59 85.6842 175.369L85.3073 175.91ZM79.0509 170.91C78.0464 170.035 77.047 169.129 76.0806 168.214L76.5202 167.726C77.48 168.634 78.4726 169.535 79.4702 170.403L79.0509 170.91ZM73.2227 165.396C72.2931 164.44 71.3709 163.452 70.4815 162.458L70.959 162.009C71.8423 162.996 72.7583 163.977 73.6815 164.926L73.2227 165.396ZM67.8619 159.407C67.0143 158.377 66.1755 157.314 65.3686 156.247L65.8808 155.84C66.6822 156.9 67.5154 157.955 68.3572 158.978L67.8619 159.407ZM63.006 152.984C62.244 151.885 61.4943 150.755 60.778 149.624L61.3215 149.262C62.033 150.385 62.7774 151.508 63.5342 152.599L63.006 152.984ZM58.6891 146.172C58.0191 145.012 57.3643 143.822 56.7428 142.635L57.3138 142.32C57.9311 143.499 58.5814 144.681 59.2468 145.834L58.6891 146.172ZM54.9429 139.017C54.3703 137.805 53.8151 136.563 53.2926 135.327L53.8873 135.063C54.4062 136.291 54.9576 137.524 55.5262 138.728L54.9429 139.017ZM51.7952 131.57C51.3233 130.311 50.8714 129.026 50.452 127.749L51.0662 127.537C51.4828 128.805 51.9316 130.082 52.4002 131.332L51.7952 131.57Z" fill="#CCCCCC"/>
<path d="M49.474 123.944C49.1896 123.397 48.9149 122.847 48.6501 122.295L49.6339 122.148C49.8967 122.696 50.1695 123.242 50.452 123.786L49.474 123.944Z" fill="#CCCCCC"/>
<path d="M234.482 86.2223C234.408 85.3595 234.328 84.4994 234.241 83.642L234.9 83.5278C234.988 84.3912 235.068 85.2573 235.142 86.1259L234.482 86.2223Z" fill="#CCCCCC"/>
<path d="M225.849 139.213L225.232 138.923C225.822 137.765 226.396 136.578 226.937 135.397L227.566 135.663C227.021 136.852 226.444 138.047 225.849 139.213ZM229.131 132.048L228.491 131.807C228.982 130.606 229.453 129.379 229.892 128.16L230.542 128.375C230.099 129.603 229.625 130.839 229.131 132.048ZM231.795 124.65L231.137 124.46C231.524 123.223 231.89 121.963 232.224 120.715L232.889 120.879C232.553 122.135 232.185 123.404 231.795 124.65V124.65ZM233.822 117.068L233.15 116.93C233.431 115.668 233.689 114.384 233.916 113.112L234.593 113.223C234.364 114.504 234.105 115.798 233.822 117.068V117.068ZM235.201 109.352L234.519 109.267C234.692 107.989 234.841 106.688 234.96 105.401L235.645 105.459C235.524 106.756 235.375 108.065 235.201 109.352V109.352ZM235.926 101.553L235.239 101.521C235.305 100.234 235.344 98.9261 235.356 97.6333L236.043 97.6391C236.031 98.9408 235.991 100.258 235.926 101.553V101.553ZM235.312 93.744C235.271 92.4535 235.202 91.1473 235.107 89.8617L235.792 89.8149C235.888 91.1094 235.957 92.4245 235.999 93.7237L235.312 93.744Z" fill="#CCCCCC"/>
<path d="M223.203 144.602L222.529 144.317C222.91 143.816 223.283 143.312 223.65 142.806L224.331 143.081C223.962 143.591 223.586 144.098 223.203 144.602Z" fill="#CCCCCC"/>
<path d="M55.3235 55.685L54.9567 55.4384C55.1323 54.9188 55.3115 54.4023 55.4944 53.8887L55.8576 54.1459C55.676 54.6561 55.4979 55.1691 55.3235 55.685Z" fill="#CCCCCC"/>
<path d="M57.3266 50.2963L56.7585 49.9751C57.3885 48.8189 58.0503 47.661 58.7258 46.533L59.2804 46.8779C58.6096 47.9979 57.9522 49.1481 57.3266 50.2963ZM221.072 47.3424C220.408 46.2201 219.712 45.0949 219.002 43.9984L219.544 43.6339C220.259 44.738 220.96 45.8709 221.629 47.0008L221.072 47.3424ZM61.3708 43.5431L60.8306 43.1757C61.5514 42.0762 62.3044 40.977 63.0688 39.9088L63.5938 40.2985C62.8347 41.3596 62.0868 42.4513 61.3708 43.5431V43.5431ZM216.798 40.7435C216.045 39.6785 215.261 38.6151 214.466 37.5829L214.977 37.1745C215.777 38.2138 216.568 39.2844 217.326 40.3567L216.798 40.7435ZM65.9452 37.1497L65.4362 36.7384C66.2432 35.7025 67.0818 34.6699 67.9288 33.6694L68.4207 34.1018C67.5795 35.0954 66.7466 36.1208 65.9452 37.1498V37.1497ZM212.009 34.5218C211.172 33.5221 210.305 32.5272 209.43 31.565L209.907 31.1154C210.787 32.0843 211.661 33.0858 212.503 34.0923L212.009 34.5218ZM71.0163 31.1594L70.542 30.707C71.4282 29.7428 72.3465 28.7835 73.2716 27.856L73.7274 28.3275C72.8086 29.2489 71.8965 30.2017 71.0163 31.1594ZM206.735 28.7178C205.823 27.7919 204.878 26.8723 203.928 25.9846L204.368 25.4969C205.324 26.3908 206.275 27.3167 207.194 28.2488L206.735 28.7178ZM76.5495 25.6112L76.1129 25.1209C77.0735 24.2335 78.0655 23.3539 79.0613 22.5065L79.4778 23.0146C78.4886 23.8561 77.5035 24.7297 76.5495 25.6112ZM201.014 23.3704C200.029 22.5229 199.014 21.6847 197.997 20.8792L198.396 20.3567C199.42 21.1677 200.442 22.0116 201.433 22.8649L201.014 23.3704ZM82.5076 20.542L82.1118 20.0172C83.1398 19.2128 84.1988 18.4188 85.2594 17.6571L85.6338 18.1981C84.5804 18.9546 83.5286 19.7433 82.5076 20.542V20.542ZM194.882 18.5156C193.832 17.7528 192.753 17.0019 191.674 16.2838L192.03 15.7298C193.116 16.4528 194.203 17.2087 195.259 17.9769L194.882 18.5156ZM88.8512 15.9867L88.4989 15.4305C89.5882 14.7145 90.7073 14.0116 91.825 13.3414L92.1546 13.9118C91.0445 14.5775 89.933 15.2755 88.8512 15.9867ZM188.379 14.1879C187.273 13.5158 186.136 12.8575 185.002 12.2315L185.312 11.6495C186.454 12.2798 187.598 12.9426 188.712 13.6195L188.379 14.1879ZM95.5385 11.9767L95.2322 11.393C96.3765 10.77 97.5482 10.1632 98.7148 9.58963L98.9973 10.1855C97.8387 10.7553 96.6749 11.358 95.5385 11.9767V11.9767ZM181.548 10.418C180.387 9.83926 179.201 9.27856 178.023 8.75148L178.285 8.14555C179.471 8.67619 180.665 9.24075 181.834 9.82374L181.548 10.418ZM102.525 8.54159L102.267 7.93404C103.456 7.41002 104.672 6.90379 105.883 6.42954L106.116 7.04743C104.914 7.51828 103.706 8.02097 102.525 8.54159V8.54159ZM174.434 7.23438C173.233 6.75642 172.005 6.29721 170.785 5.86982L170.996 5.24385C172.225 5.6743 173.461 6.13659 174.67 6.61795L174.434 7.23438ZM109.764 5.70581L109.556 5.07887C110.785 4.65585 112.038 4.25383 113.28 3.88397L113.462 4.51931C112.229 4.88659 110.984 5.28586 109.764 5.70581ZM167.083 4.66021C165.846 4.2847 164.585 3.93051 163.334 3.60766L163.494 2.96618C164.753 3.29129 166.023 3.64774 167.268 4.02584L167.083 4.66021ZM117.205 3.48939L117.048 2.84693C118.307 2.5291 119.588 2.23389 120.855 1.96986L120.985 2.61814C119.727 2.88055 118.455 3.17365 117.205 3.48939V3.48939ZM159.545 2.71427C158.288 2.4454 157.004 2.19915 155.73 1.98214L155.837 1.32935C157.12 1.54781 158.413 1.79584 159.679 2.06664L159.545 2.71427ZM124.804 1.90539L124.7 1.25195C125.981 1.0406 127.283 0.853649 128.571 0.696269L128.649 1.35326C127.369 1.50968 126.076 1.69549 124.804 1.90539V1.90539ZM151.888 1.41079C150.613 1.24824 149.314 1.11008 148.027 1.00053L148.081 0.340949C149.376 0.451308 150.685 0.590274 151.969 0.754116L151.888 1.41079ZM132.512 0.962391L132.461 0.302488C133.754 0.198909 135.067 0.120865 136.363 0.0706116L136.388 0.731974C135.1 0.78191 133.796 0.859304 132.512 0.962396V0.962391ZM144.152 0.751041C142.866 0.695132 141.56 0.665075 140.271 0.661842L140.272 0C141.57 0.0032331 142.885 0.0334527 144.18 0.0898449L144.152 0.751041Z" fill="#CCCCCC"/>
<path d="M223.983 52.9908C223.802 52.2263 223.618 51.4664 223.43 50.7113L223.775 50.2964C223.964 51.0567 224.149 51.8218 224.331 52.5916L223.983 52.9908Z" fill="#CCCCCC"/>
<path d="M119.719 64.6665H113.722V116.855C113.721 118.181 113.208 119.452 112.297 120.39C111.385 121.328 110.15 121.855 108.861 121.857H10.8112V126.359C10.8132 127.861 11.3944 129.302 12.4273 130.365C13.4603 131.428 14.8606 132.025 16.3214 132.028H119.719C121.18 132.025 122.58 131.428 123.613 130.365C124.646 129.302 125.227 127.861 125.229 126.359V70.3355C125.227 68.8326 124.646 67.392 123.613 66.3293C122.58 65.2666 121.18 64.6686 119.719 64.6665Z" fill="#F2F2F2"/>
<path d="M108.908 55.6851H5.51021C4.04945 55.6872 2.6491 56.2771 1.61618 57.3257C0.583267 58.3742 0.00206646 59.7957 0 61.2785V116.555C0.00206731 118.037 0.583272 119.459 1.61619 120.507C2.64911 121.556 4.04945 122.146 5.51021 122.148H108.908C110.369 122.146 111.769 121.556 112.802 120.507C113.835 119.459 114.416 118.037 114.418 116.555V61.2785C114.416 59.7957 113.835 58.3742 112.802 57.3257C111.769 56.2771 110.369 55.6872 108.908 55.6851ZM113.77 116.555C113.768 117.863 113.255 119.117 112.344 120.043C111.432 120.968 110.197 121.488 108.908 121.49H5.51021C4.22122 121.488 2.98548 120.968 2.07403 120.043C1.16257 119.117 0.649828 117.863 0.64826 116.555V61.2785C0.649828 59.97 1.16257 58.7156 2.07403 57.7904C2.98548 56.8652 4.22122 56.3447 5.51021 56.3431H108.908C110.197 56.3447 111.432 56.8652 112.344 57.7904C113.255 58.7156 113.768 59.97 113.77 61.2785V116.555Z" fill="#3F3D56"/>
<path d="M101.861 96.1018H64.8105C64.1087 96.1018 63.4355 95.8179 62.9392 95.3126C62.4429 94.8073 62.1641 94.1219 62.1641 93.4073C62.1641 92.6927 62.4429 92.0074 62.9392 91.5021C63.4355 90.9968 64.1087 90.7129 64.8105 90.7129H101.861C102.563 90.7129 103.236 90.9968 103.733 91.5021C104.229 92.0074 104.508 92.6927 104.508 93.4073C104.508 94.1219 104.229 94.8073 103.733 95.3126C103.236 95.8179 102.563 96.1018 101.861 96.1018Z" fill="#CCCCCC"/>
<path d="M78.474 85.3239H64.7736C64.0815 85.3239 63.4178 85.0401 62.9284 84.5348C62.439 84.0295 62.1641 83.3441 62.1641 82.6295C62.1641 81.9149 62.439 81.2295 62.9284 80.7242C63.4178 80.2189 64.0815 79.9351 64.7736 79.9351H78.474C79.1661 79.9351 79.8298 80.2189 80.3192 80.7242C80.8086 81.2295 81.0836 81.9149 81.0836 82.6295C81.0836 83.3441 80.8086 84.0295 80.3192 84.5348C79.8298 85.0401 79.1661 85.3239 78.474 85.3239Z" fill="#CCCCCC"/>
<path d="M48.5858 109.574H15.3802C14.6465 109.573 13.9432 109.276 13.4244 108.747C12.9057 108.219 12.6139 107.503 12.613 106.755V69.2817C12.6139 68.5344 12.9057 67.8179 13.4244 67.2894C13.9432 66.761 14.6465 66.4637 15.3802 66.4629H48.5858C49.3195 66.4637 50.0228 66.761 50.5416 67.2894C51.0603 67.8179 51.3522 68.5344 51.353 69.2817V106.755C51.3522 107.503 51.0603 108.219 50.5416 108.747C50.0228 109.276 49.3195 109.573 48.5858 109.574V109.574Z" fill="#A773FE"/>
<path d="M40.5108 79.9353H26.158C25.433 79.9353 24.7376 79.6514 24.2249 79.1461C23.7122 78.6408 23.4242 77.9554 23.4242 77.2408C23.4242 76.5262 23.7122 75.8409 24.2249 75.3356C24.7376 74.8303 25.433 74.5464 26.158 74.5464H40.5108C41.2358 74.5464 41.9312 74.8303 42.4439 75.3356C42.9566 75.8409 43.2446 76.5262 43.2446 77.2408C43.2446 77.9554 42.9566 78.6408 42.4439 79.1461C41.9312 79.6514 41.2358 79.9353 40.5108 79.9353Z" fill="#FAFAFA"/>
<path d="M40.5108 89.8147H26.158C25.433 89.8147 24.7376 89.5308 24.2249 89.0255C23.7122 88.5202 23.4242 87.8348 23.4242 87.1202C23.4242 86.4056 23.7122 85.7203 24.2249 85.215C24.7376 84.7097 25.433 84.4258 26.158 84.4258H40.5108C41.2358 84.4258 41.9312 84.7097 42.4439 85.215C42.9566 85.7203 43.2446 86.4056 43.2446 87.1202C43.2446 87.8348 42.9566 88.5202 42.4439 89.0255C41.9312 89.5308 41.2358 89.8147 40.5108 89.8147Z" fill="#FAFAFA"/>
<path d="M284.841 152.685H279.634V169.817C279.632 171.293 279.051 172.708 278.018 173.751C276.985 174.795 275.584 175.382 274.123 175.384H144.149V177.899C144.15 179.548 144.799 181.13 145.954 182.296C147.109 183.463 148.675 184.119 150.308 184.12H284.841C286.474 184.119 288.04 183.463 289.194 182.296C290.349 181.13 290.998 179.548 291 177.899V158.907C290.998 157.257 290.349 155.675 289.194 154.509C288.04 153.343 286.474 152.687 284.841 152.685Z" fill="#F2F2F2"/>
<path d="M274.893 144.602H139.535C137.891 144.604 136.316 145.26 135.154 146.426C133.992 147.592 133.339 149.174 133.337 150.824V169.816C133.339 171.465 133.992 173.047 135.154 174.213C136.316 175.38 137.891 176.036 139.535 176.037H274.893C276.536 176.036 278.111 175.38 279.273 174.213C280.435 173.047 281.088 171.465 281.09 169.816V150.824C281.088 149.174 280.435 147.592 279.273 146.426C278.111 145.26 276.536 144.604 274.893 144.602ZM280.437 169.816C280.435 171.291 279.85 172.706 278.811 173.75C277.772 174.793 276.363 175.38 274.893 175.382H139.535C138.065 175.38 136.655 174.793 135.616 173.75C134.577 172.706 133.992 171.291 133.99 169.816V150.824C133.992 149.348 134.577 147.933 135.616 146.89C136.655 145.846 138.065 145.259 139.535 145.257H274.893C276.363 145.259 277.772 145.846 278.811 146.89C279.85 147.933 280.435 149.348 280.437 150.824V169.816Z" fill="#3F3D56"/>
<path d="M163.519 149.093C161.469 149.093 159.466 149.751 157.763 150.985C156.059 152.218 154.731 153.972 153.947 156.023C153.162 158.075 152.957 160.332 153.357 162.51C153.757 164.688 154.744 166.688 156.193 168.258C157.641 169.828 159.488 170.898 161.497 171.331C163.507 171.764 165.59 171.542 167.483 170.692C169.377 169.842 170.995 168.403 172.133 166.557C173.272 164.711 173.879 162.54 173.879 160.32C173.876 157.343 172.784 154.49 170.841 152.385C168.899 150.28 166.265 149.096 163.519 149.093Z" fill="#A773FE"/>
<path d="M258.681 169.75H184.576C183.89 169.75 183.231 169.466 182.746 168.961C182.26 168.456 181.988 167.77 181.988 167.056C181.988 166.341 182.26 165.656 182.746 165.151C183.231 164.645 183.89 164.361 184.576 164.361H258.681C259.367 164.361 260.026 164.645 260.511 165.151C260.997 165.656 261.269 166.341 261.269 167.056C261.269 167.77 260.997 168.456 260.511 168.961C260.026 169.466 259.367 169.75 258.681 169.75Z" fill="#CCCCCC"/>
<path d="M220.88 158.074H184.538C183.862 158.074 183.213 157.79 182.735 157.285C182.256 156.779 181.988 156.094 181.988 155.38C181.988 154.665 182.256 153.98 182.735 153.474C183.213 152.969 183.862 152.685 184.538 152.685H220.88C221.556 152.685 222.205 152.969 222.683 153.474C223.162 153.98 223.43 154.665 223.43 155.38C223.43 156.094 223.162 156.779 222.683 157.285C222.205 157.79 221.556 158.074 220.88 158.074Z" fill="#CCCCCC"/>
<path d="M162.442 165.259C162.185 165.26 161.935 165.165 161.729 164.99L161.717 164.979L159.031 162.643C158.78 162.425 158.615 162.101 158.574 161.744C158.532 161.388 158.617 161.027 158.81 160.741C159.002 160.456 159.287 160.269 159.601 160.222C159.915 160.175 160.232 160.271 160.483 160.49L162.223 162.006L166.333 155.91C166.429 155.769 166.548 155.65 166.683 155.561C166.819 155.472 166.969 155.414 167.124 155.391C167.279 155.368 167.437 155.379 167.588 155.425C167.74 155.471 167.882 155.551 168.006 155.659L168.006 155.66L167.981 155.7L168.007 155.66C168.258 155.879 168.422 156.202 168.463 156.559C168.505 156.915 168.42 157.276 168.228 157.561L163.393 164.728C163.281 164.893 163.137 165.027 162.972 165.119C162.808 165.211 162.627 165.258 162.443 165.257L162.442 165.259Z" fill="white"/>
<path d="M265.04 58.3794H264.355C264.368 58.5202 264.375 58.6643 264.375 58.8116V77.8037C264.373 79.2794 263.793 80.6941 262.764 81.7376C261.734 82.7811 260.338 83.3683 258.882 83.3704H194.601V83.593C194.601 83.7371 194.607 83.8812 194.617 84.0253C194.725 85.5964 195.417 87.0674 196.553 88.1418C197.69 89.2162 199.186 89.8139 200.74 89.8146H265.04C266.668 89.8131 268.229 89.1571 269.38 87.9907C270.531 86.8242 271.178 85.2426 271.18 83.593V64.6009C271.178 62.9513 270.531 61.3697 269.38 60.2033C268.229 59.0368 266.668 58.3809 265.04 58.3794Z" fill="#F2F2F2"/>
<path d="M265.758 58.6146C265.65 57.0884 264.958 55.6594 263.821 54.6157C262.685 53.572 261.189 52.9913 259.635 52.9907H195.334C193.707 52.9922 192.146 53.6294 190.995 54.7625C189.844 55.8956 189.197 57.432 189.195 59.0345V77.484C189.197 79.0864 189.844 80.6229 190.995 81.756C192.146 82.8891 193.707 83.5263 195.334 83.5278H259.635C261.263 83.5263 262.823 82.8891 263.974 81.756C265.125 80.6229 265.773 79.0864 265.774 77.484V59.0345C265.774 58.8945 265.768 58.7546 265.758 58.6146ZM265.128 77.484C265.126 78.9175 264.546 80.2918 263.517 81.3055C262.487 82.3192 261.091 82.8895 259.635 82.8916H195.334C193.878 82.8895 192.482 82.3192 191.452 81.3055C190.423 80.2918 189.843 78.9175 189.841 77.484V59.0345C189.843 57.6009 190.423 56.2267 191.452 55.213C192.482 54.1993 193.878 53.6289 195.334 53.6269H259.635C261.017 53.6288 262.348 54.1431 263.362 55.0674C264.376 55.9917 265 57.2582 265.108 58.6146C265.121 58.7514 265.128 58.8914 265.128 59.0345V77.484Z" fill="#3F3D56"/>
<path d="M243.298 76.3425H210.77C210.066 76.3425 209.39 76.0586 208.892 75.5533C208.394 75.048 208.115 74.3627 208.115 73.6481C208.115 72.9334 208.394 72.2481 208.892 71.7428C209.39 71.2375 210.066 70.9536 210.77 70.9536H243.298C244.002 70.9536 244.678 71.2375 245.176 71.7428C245.674 72.2481 245.954 72.9334 245.954 73.6481C245.954 74.3627 245.674 75.048 245.176 75.5533C244.678 76.0586 244.002 76.3425 243.298 76.3425Z" fill="#CCCCCC"/>
<path d="M233.383 65.5647H210.774C210.069 65.5647 209.392 65.2808 208.894 64.7755C208.395 64.2702 208.115 63.5848 208.115 62.8702C208.115 62.1556 208.395 61.4703 208.894 60.965C209.392 60.4597 210.069 60.1758 210.774 60.1758H233.383C234.089 60.1758 234.765 60.4597 235.264 60.965C235.763 61.4703 236.043 62.1556 236.043 62.8702C236.043 63.5848 235.763 64.2702 235.264 64.7755C234.765 65.2808 234.089 65.5647 233.383 65.5647Z" fill="#CCCCCC"/>
</svg>
