<svg xmlns:xlink="http://www.w3.org/1999/xlink"  width="160" height="128" viewBox="0 0 160 128" fill="none" xmlns="http://www.w3.org/2000/svg">
<g clip-path="url(#clip0)">
<path d="M119.354 125.609C117.139 123.737 115.794 120.781 116.147 117.903C116.5 115.025 118.685 112.38 121.519 111.769C124.353 111.158 127.584 112.849 128.445 115.618C128.919 110.28 129.465 104.718 132.303 100.173C134.873 96.0566 139.323 93.1114 144.147 92.5845C148.971 92.0576 154.049 94.0477 157.058 97.8549C160.066 101.662 160.803 107.197 158.696 111.568C157.144 114.788 154.284 117.185 151.288 119.134C141.606 125.381 129.995 127.921 118.589 126.288" fill="#F2F2F2"/>
<path d="M152.288 94.158C148.308 97.3999 144.656 101.026 141.387 104.983C136.269 111.155 132.129 118.075 129.108 125.501C128.887 126.043 129.767 126.279 129.986 125.743C134.927 113.673 142.816 103.035 152.931 94.8014C153.385 94.4315 152.738 93.7912 152.288 94.158Z" fill="white"/>
<path d="M39.1181 126.889H26.558C26.1335 126.889 25.7267 126.72 25.4266 126.42C25.1264 126.12 24.9576 125.713 24.9572 125.289V99.1833C24.9576 98.7589 25.1264 98.352 25.4266 98.0519C25.7267 97.7518 26.1335 97.583 26.558 97.5825H39.1181C39.5425 97.583 39.9494 97.7518 40.2495 98.0519C40.5496 98.352 40.7184 98.7589 40.7189 99.1833V125.289C40.7184 125.713 40.5496 126.12 40.2495 126.42C39.9494 126.72 39.5425 126.889 39.1181 126.889Z" fill="#A773FE"/>
<path d="M68.9176 127.136H56.3575C55.8677 127.135 55.3982 126.94 55.052 126.594C54.7057 126.248 54.5109 125.778 54.5104 125.289V74.5556C54.5109 74.0659 54.7057 73.5964 55.052 73.2501C55.3982 72.9038 55.8677 72.709 56.3575 72.7085H68.9176C69.4073 72.709 69.8768 72.9038 70.2231 73.2501C70.5693 73.5964 70.7641 74.0659 70.7646 74.5556V125.289C70.7641 125.778 70.5693 126.248 70.2231 126.594C69.8768 126.94 69.4073 127.135 68.9176 127.136ZM56.3575 73.2011C55.9983 73.2015 55.654 73.3443 55.4001 73.5982C55.1462 73.8522 55.0033 74.1965 55.0029 74.5556V125.289C55.0033 125.648 55.1462 125.992 55.4001 126.246C55.654 126.5 55.9983 126.643 56.3575 126.643H68.9176C69.2767 126.643 69.621 126.5 69.8749 126.246C70.1288 125.992 70.2717 125.648 70.2721 125.289V74.5556C70.2717 74.1965 70.1288 73.8522 69.8749 73.5982C69.621 73.3443 69.2767 73.2015 68.9176 73.2011H56.3575Z" fill="#3F3D56"/>
<path d="M98.717 127.136H86.1569C85.6672 127.136 85.1977 126.941 84.8514 126.595C84.5051 126.248 84.3104 125.779 84.3098 125.289V42.2939C84.3104 41.8041 84.5051 41.3346 84.8514 40.9884C85.1977 40.6421 85.6672 40.4473 86.1569 40.4468H98.717C99.2067 40.4473 99.6762 40.6421 100.023 40.9884C100.369 41.3346 100.564 41.8041 100.564 42.2939V125.289C100.564 125.779 100.369 126.248 100.023 126.595C99.6762 126.941 99.2067 127.136 98.717 127.136ZM86.1569 40.9393C85.7978 40.9397 85.4535 41.0826 85.1995 41.3365C84.9456 41.5904 84.8028 41.9347 84.8024 42.2939V125.289C84.8028 125.648 84.9456 125.993 85.1995 126.247C85.4535 126.5 85.7978 126.643 86.1569 126.644H98.717C99.0761 126.643 99.4204 126.5 99.6744 126.247C99.9283 125.993 100.071 125.648 100.072 125.289V42.2939C100.071 41.9347 99.9283 41.5904 99.6744 41.3365C99.4204 41.0826 99.0761 40.9397 98.717 40.9393H86.1569Z" fill="#3F3D56"/>
<path d="M128.795 127.013H116.235C115.81 127.012 115.403 126.843 115.103 126.543C114.803 126.243 114.634 125.836 114.634 125.412V8.43039C114.634 8.00598 114.803 7.5991 115.103 7.299C115.403 6.99889 115.81 6.83008 116.235 6.82959H128.795C129.219 6.83008 129.626 6.99889 129.926 7.299C130.226 7.5991 130.395 8.00598 130.396 8.43039V125.412C130.395 125.836 130.226 126.243 129.926 126.543C129.626 126.843 129.219 127.012 128.795 127.013Z" fill="#A773FE"/>
<path d="M50.6787 54.7617C50.7242 54.4026 50.6905 54.0378 50.5798 53.6931C50.4691 53.3483 50.2842 53.0321 50.0381 52.7666C49.792 52.501 49.4907 52.2927 49.1553 52.1562C48.82 52.0197 48.4588 51.9585 48.0972 51.9767L43.7192 43.9458L42.7341 47.3937L45.7335 54.7539C45.8044 55.3593 46.0949 55.9177 46.5499 56.3232C47.005 56.7288 47.593 56.9533 48.2026 56.9543C48.8121 56.9552 49.4009 56.7326 49.8572 56.3285C50.3136 55.9244 50.6059 55.3669 50.6787 54.7617V54.7617Z" fill="#A0616A"/>
<path d="M16.9478 86.471L19.3861 88.2513L27.4135 79.6925L23.8144 77.0649L16.9478 86.471Z" fill="#A0616A"/>
<path d="M22.4362 93.9492L14.772 88.354L16.9338 85.3929L21.6368 88.8263C22.4222 89.3996 22.9476 90.2615 23.0975 91.2222C23.2474 92.1829 23.0095 93.1639 22.4362 93.9492L22.4362 93.9492Z" fill="#2F2E41"/>
<path d="M29.849 95.8947L32.8684 95.8945L34.3046 84.2485L29.8485 84.2488L29.849 95.8947Z" fill="#A0616A"/>
<path d="M38.6914 98.6978L29.2022 98.6982L29.202 95.0319L35.0249 95.0316C35.9973 95.0316 36.9299 95.4178 37.6175 96.1053C38.3051 96.7929 38.6914 97.7254 38.6914 98.6978Z" fill="#2F2E41"/>
<path d="M38.9169 50.4723C38.9169 50.4723 40.3945 64.7563 36.7004 74.6074L33.9913 93.3245H29.3121L29.8046 71.1595L28.0807 51.4574C28.0807 51.4574 31.5286 42.5914 38.9169 50.4723Z" fill="#2F2E41"/>
<path d="M22.9089 51.4573L27.8344 68.4504L18.2296 83.7196L23.032 87.7832L33.9913 70.6669L30.7897 49.7334L22.9089 51.4573Z" fill="#2F2E41"/>
<path d="M35.4701 13.3515C38.8107 13.3515 41.5189 10.6434 41.5189 7.30272C41.5189 3.96205 38.8107 1.25391 35.4701 1.25391C32.1294 1.25391 29.4213 3.96205 29.4213 7.30272C29.4213 10.6434 32.1294 13.3515 35.4701 13.3515Z" fill="#A0616A"/>
<path d="M30.4203 15.6239C30.4203 15.6239 34.1145 13.1611 38.3012 18.5792L39.4094 52.6885C39.4094 52.6885 36.2078 48.2556 29.5584 52.4423C22.9089 56.629 21.4312 51.9497 21.4312 51.9497C21.4312 51.9497 16.752 16.7321 30.4203 15.6239Z" fill="#CCCCCC"/>
<path d="M38.0032 18.4931C39.0657 18.5505 40.0694 18.9988 40.8212 19.7517C41.5731 20.5046 42.0199 21.509 42.0759 22.5715L42.8573 37.4193L48.0291 51.4571L45.0738 53.9198L35.469 37.173L33.5026 23.4078C33.4124 22.7769 33.4633 22.1338 33.6515 21.525C33.8397 20.9161 34.1606 20.3565 34.591 19.8864C35.0214 19.4164 35.5507 19.0477 36.1407 18.8068C36.7307 18.5658 37.3668 18.4587 38.0032 18.4931Z" fill="#CCCCCC"/>
<path d="M31.0254 11.8401C32.0143 12.8935 33.8507 12.328 33.9796 10.889C33.9897 10.7772 33.989 10.6648 33.9774 10.5532C33.9109 9.91579 33.5426 9.33708 33.6308 8.66405C33.6508 8.49654 33.7132 8.33691 33.8122 8.20028C34.6002 7.14507 36.4499 8.67224 37.1936 7.717C37.6496 7.13127 37.1136 6.20906 37.4635 5.5544C37.9254 4.69037 39.2934 5.1166 40.1513 4.64341C41.1058 4.11693 41.0487 2.65244 40.4204 1.76167C39.6541 0.675347 38.3106 0.0956714 36.9839 0.012122C35.6571 -0.0714274 34.3395 0.287235 33.1008 0.769952C31.6934 1.31841 30.2978 2.0764 29.4318 3.3139C28.3785 4.81883 28.2772 6.84206 28.8039 8.60179C29.1243 9.67225 30.2179 10.9799 31.0254 11.8401Z" fill="#2F2E41"/>
<path d="M159.707 127.031H0.293241C0.215616 127.031 0.141246 127 0.0864366 126.945C0.0316272 126.89 0.000854492 126.816 0.000854492 126.738C0.000854492 126.66 0.0316272 126.586 0.0864366 126.531C0.141246 126.476 0.215616 126.445 0.293241 126.445H159.707C159.784 126.445 159.859 126.476 159.914 126.531C159.968 126.586 159.999 126.66 159.999 126.738C159.999 126.816 159.968 126.89 159.914 126.945C159.859 127 159.784 127.031 159.707 127.031Z" fill="#3F3D56"/>
</g>
<defs>
<clipPath id="clip0">
<rect width="160" height="127.136" fill="white"/>
</clipPath>
</defs>
</svg>
