<svg xmlns="http://www.w3.org/2000/svg" xmlns:xlink="http://www.w3.org/1999/xlink" width="977px" height="646px" viewBox="0 0 977 646" version="1.1">
    <title>Alex</title>
    <defs>
        <linearGradient x1="50%" y1="0%" x2="50%" y2="100%" id="linearGradient-1">
            <stop stop-color="#A874FF" offset="0%"/>
            <stop stop-color="#3D29D1" offset="100%"/>
        </linearGradient>
    </defs>
    <g id="Alex-Final---Apercu" stroke="none" stroke-width="1" fill="none" fill-rule="evenodd">
        <g id="Group" transform="translate(159.000000, 202.000000)" fill-rule="nonzero">
            <path d="M209.513819,239.011487 C198.140245,244.088188 184.813674,239.10908 179.559651,227.890697 L179.402919,227.548841 L111.901677,77.1058085 L43.5556945,227.640406 C38.3636607,239.076266 24.8599526,244.148817 13.3943183,238.970266 C2.0433403,233.843501 -3.05472096,220.591618 1.88227812,209.230889 L2.03495969,208.887214 L90.6204916,13.7706584 C92.9876147,8.55688476 97.1862433,4.38761851 102.423997,2.04969808 C114.147528,-3.18320911 127.884147,1.94910193 133.299833,13.5126657 L133.461387,13.8650412 L221.00631,208.978779 C226.147642,220.437405 221.002278,233.883506 209.513819,239.011487 Z" id="Combined-Shape" fill="url(#linearGradient-1)"/>
            <path d="M296.108,239 L296.108,3.944 L254.94,3.944 L254.94,239 L296.108,239 Z M415.96,241.656 C456.464,241.656 479.04,222.4 491.988,192.852 L458.788,180.568 C448.828,197.832 437.208,206.464 418.284,206.464 C392.72,206.464 379.772,187.208 378.776,168.616 L493.98,168.616 L493.98,151.684 C493.98,115.164 471.736,69.016 415.96,69.016 C358.524,69.016 335.616,115.828 335.616,155.336 C335.616,194.844 358.524,241.656 415.96,241.656 Z M451.816,136.08 L379.772,136.08 C382.76,120.144 395.044,104.208 415.96,104.208 C437.872,104.208 448.164,119.48 451.816,136.08 Z M551.748,239 L585.944,184.552 L620.14,239 L663.3,239 L607.856,149.692 L656.328,71.672 L613.168,71.672 L585.944,115.164 L558.72,71.672 L515.56,71.672 L564.032,149.692 L508.588,239 L551.748,239 Z" id="lex" fill="#2A2C5C"/>
        </g>
    </g>
</svg>