<svg xmlns:xlink="http://www.w3.org/1999/xlink"  xmlns="http://www.w3.org/2000/svg" width="160" height="34" viewBox="0 0 160 34">
    <g fill="none">
        <g fill="#22293D">
            <path d="M10.248 1.417c1.083.936 1.68 2.305 1.626 3.725.05 1.42-.547 2.786-1.626 3.725-1.162.988-2.66 1.501-4.192 1.437h-2.76v5.62H0V.004h6.056c1.527-.064 3.023.44 4.192 1.412zM3.3 2.879v4.58h2.756c.662.038 1.31-.193 1.796-.639.44-.447.675-1.054.648-1.678.022-.613-.217-1.207-.66-1.638-.486-.435-1.128-.662-1.784-.629L3.3 2.88zM24.652 11.05h-8.519c.18.708.61 1.329 1.211 1.751.658.43 1.435.644 2.223.614 1.229-.014 2.417-.44 3.37-1.206l1.367 2.219c-1.34 1.154-3.06 1.789-4.837 1.784-1.76.055-3.467-.592-4.737-1.795-1.236-1.154-1.92-2.77-1.882-4.45-.025-1.664.634-3.267 1.826-4.445 1.193-1.177 2.817-1.827 4.504-1.802 1.514-.06 2.986.503 4.064 1.554 1.08 1.051 1.668 2.496 1.628 3.992-.003.6-.076 1.2-.218 1.784zM17.226 7c-.538.46-.915 1.077-1.078 1.761h5.522C21.684 8.09 21.4 7.445 20.89 7c-.513-.438-1.174-.67-1.852-.65-.663-.006-1.306.225-1.811.65zM36.84 5.036c.848.962 1.286 2.21 1.223 3.484v7.403h-3.274V8.955c.028-.619-.196-1.223-.622-1.678-.427-.43-1.017-.662-1.626-.64-.616-.021-1.213.21-1.648.64-.442.447-.676 1.054-.649 1.678v6.968h-3.296V3.987h3.03v1.097c.94-.914 2.222-1.404 3.54-1.353 1.248-.064 2.46.413 3.323 1.305zM50.644 5.036c.845.964 1.282 2.211 1.219 3.484v7.403h-3.27V8.955c.026-.62-.2-1.224-.626-1.678-.425-.43-1.015-.662-1.623-.64-.616-.02-1.213.212-1.651.64-.44.449-.672 1.055-.645 1.678v6.968h-3.3V3.987h3.03v1.097c.941-.915 2.224-1.405 3.544-1.353 1.247-.064 2.46.413 3.322 1.305zM66.278 3.987L60.5 16.957c-.42 1.058-1.102 1.996-1.981 2.728-.82.596-1.818.9-2.834.867-.718-.005-1.433-.102-2.126-.29V17.54c.741.062 1.222.095 1.419.095.515.014 1.024-.102 1.481-.336.475-.305.835-.754 1.026-1.28l.37-.793-4.648-11.238H56.7l2.963 7.834 3.152-7.834h3.463zM71.015 15.923L67.719 15.923 67.719.108 71.015.108zM82.533 5.036c.936.875 1.405 2.141 1.408 3.798v7.09h-3.03v-1.16c-.965.99-2.314 1.522-3.704 1.463-1.288 0-2.307-.334-3.055-1.002-.736-.649-1.143-1.586-1.111-2.56-.045-1.001.417-1.96 1.233-2.558.822-.62 1.933-.929 3.333-.929h3.03v-.537c.033-.57-.175-1.13-.574-1.543-.46-.398-1.063-.598-1.674-.556-1.074 0-2.14.546-3.2 1.638l-1.708-2c1.278-1.584 3.228-2.492 5.278-2.46 1.583 0 2.841.439 3.774 1.316zm-2.626 8.127c.49-.431.76-1.053.741-1.7v-.146h-2.592c-1.121 0-1.683.402-1.686 1.206-.013.375.165.732.474.95.368.255.81.384 1.26.366.667.012 1.313-.23 1.803-.676zM96.519 5.036c.847.962 1.285 2.21 1.222 3.484v7.403h-3.274V8.955c.024-.62-.204-1.225-.634-1.678-.425-.43-1.014-.662-1.622-.64-.616-.02-1.213.212-1.652.64-.439.449-.672 1.055-.644 1.678v6.968h-3.3V3.987h3.03v1.097c.94-.914 2.221-1.404 3.54-1.353 1.251-.069 2.47.409 3.334 1.305zM111.544 11.05h-8.518c.18.708.609 1.329 1.211 1.751.657.43 1.435.644 2.222.614 1.23-.014 2.418-.44 3.37-1.206l1.367 2.219c-1.339 1.155-3.058 1.79-4.837 1.784-1.763.058-3.475-.589-4.748-1.795-1.225-1.16-1.897-2.775-1.852-4.45-.025-1.658.63-3.257 1.815-4.433 1.185-1.176 2.801-1.83 4.482-1.814 1.514-.06 2.986.503 4.064 1.554 1.079 1.051 1.668 2.496 1.628 3.992.002.6-.066 1.199-.204 1.784zM104.12 7c-.538.46-.916 1.077-1.078 1.761h5.522c.014-.672-.272-1.316-.782-1.762-.512-.438-1.173-.67-1.851-.65-.664-.006-1.307.225-1.811.65zM111.719 3.106L111.719 3.987 110.796 3.987 110.796 3.106zM113.833 3.23v.757h-.407c-.287.016-.57-.072-.796-.249-.21-.223-.312-.524-.282-.826V1.746h-.392v-.732h.396V.181h.889v.833h.592v.732h-.585v1.188c-.02.085.006.174.068.236.063.062.153.087.24.067l.277-.007zM117.06 2.71h-2.016c-.006.17.054.337.167.465.1.093.233.144.37.143.118.004.234-.03.33-.099.084-.063.144-.151.17-.252h.945c-.036.2-.123.387-.252.544-.13.16-.298.285-.489.366-.206.094-.432.142-.66.139-.263.004-.524-.058-.758-.18-.22-.116-.4-.294-.519-.511-.13-.24-.195-.51-.189-.782-.006-.272.058-.542.185-.783.119-.216.3-.393.519-.508.48-.236 1.043-.236 1.522 0 .22.11.4.282.522.494.123.224.185.476.178.73 0 .08-.009.158-.026.235zm-1.027-.793c-.107-.095-.248-.146-.392-.142-.15-.006-.295.045-.408.142-.115.112-.18.265-.181.425h1.133c.015-.157-.04-.312-.152-.425zM119.807 1.38c.258.214.428.513.478.84h-.944c-.021-.112-.081-.214-.17-.288-.095-.071-.212-.108-.33-.102-.145.003-.281.07-.37.183-.11.154-.162.341-.149.53-.014.19.039.377.148.533.09.113.226.18.37.183.12.006.236-.03.33-.102.09-.074.15-.176.17-.289h.945c-.05.328-.22.627-.478.84-.268.21-.602.319-.944.308-.264.004-.525-.058-.76-.18-.218-.116-.397-.294-.514-.511-.25-.493-.25-1.072 0-1.565.117-.217.298-.394.518-.508.234-.123.495-.184.76-.179.34-.01.673.099.94.307zM123.385 1.417c.21.254.315.576.296.903v1.667h-.892V2.422c.01-.164-.044-.325-.152-.45-.108-.108-.257-.166-.411-.16-.161-.008-.318.053-.43.168-.112.137-.167.31-.155.486v1.52h-.893V.182h.893v1.462c.082-.167.21-.308.37-.406.177-.1.378-.15.582-.146.3-.014.59.105.792.326z" transform="translate(36.167 6.297)"/>
        </g>
        <g fill="#00E6BE">
            <path d="M25.104 8.643L21.74 5.319l-1.852-1.828c-2.536-2.5-6.645-2.5-9.182 0l-.64.63 2.726 2.69c.352.348.924.348 1.277 0 .325-.321.766-.501 1.226-.501.46 0 .901.18 1.226.501l1.852 1.828-3.074 3.03L3.474 0 .111 3.32 5.5 8.643 0 14.068l20.056 19.8 3.366-3.323-4.755-4.694 7.344-7.25c2.533-2.503 2.533-6.56 0-9.063l-.907-.895zm-2.456 6.635l-6.722 6.62c-.355.348-.927.348-1.282 0l-7.914-7.83 2.133-2.106 6.437 6.354 6.437-6.354.911.9c.325.32.508.754.508 1.208 0 .453-.183.888-.508 1.208zM26.937 6.833l3.556-3.513L27.126 0 22.93 4.142l2.726 2.69c.355.348.926.348 1.281 0z"/>
        </g>
    </g>
</svg>