<?xml version="1.0" encoding="UTF-8" standalone="no"?>
<!-- Created with Inkscape (http://www.inkscape.org/) -->

<svg xmlns:xlink="http://www.w3.org/1999/xlink" 
   version="1.1"
   id="svg2"
   xml:space="preserve"
   width="2560"
   height="746.66669"
   viewBox="0 0 2560 746.66669"
   sodipodi:docname="Qonto_MasterLogo_Black_RGB.ai"
   xmlns:inkscape="http://www.inkscape.org/namespaces/inkscape"
   xmlns:sodipodi="http://sodipodi.sourceforge.net/DTD/sodipodi-0.dtd"
   xmlns="http://www.w3.org/2000/svg"
   xmlns:svg="http://www.w3.org/2000/svg"><defs
     id="defs6"><clipPath
       clipPathUnits="userSpaceOnUse"
       id="clipPath16"><path
         d="M 0,560 H 1920 V 0 H 0 Z"
         id="path14" /></clipPath></defs><sodipodi:namedview
     id="namedview4"
     pagecolor="#ffffff"
     bordercolor="#666666"
     borderopacity="1.0"
     inkscape:pageshadow="2"
     inkscape:pageopacity="0.0"
     inkscape:pagecheckerboard="0" /><g
     id="g8"
     inkscape:groupmode="layer"
     inkscape:label="Qonto_MasterLogo_Black_RGB"
     transform="matrix(1.3333333,0,0,-1.3333333,0,746.66667)"><g
       id="g10"><g
         id="g12"
         clip-path="url(#clipPath16)"><g
           id="g18"
           transform="translate(984.5619,26.9319)"><path
             d="m 0,0 h 73.003 v 206.047 c 0,50.488 34.796,88.695 81.191,88.695 46.394,0 84.602,-38.207 84.602,-88.695 V 0 h 78.461 v 211.505 c 0,89.378 -72.321,156.923 -151.465,156.923 -30.02,0 -65.681,-9.424 -92.789,-46.785 V 360.24 H 0 Z"
             style="fill:#111111;fill-opacity:1;fill-rule:nonzero;stroke:none"
             id="path20" /></g><g
           id="g22"
           transform="translate(1724.8284,94.4771)"><path
             d="m 0,0 c -59.358,0 -108.482,49.124 -108.482,111.211 0,65.498 49.124,113.939 108.482,113.939 62.769,0 111.211,-48.441 111.211,-113.939 C 111.211,49.124 62.769,0 0,0 m 0,300.882 c -105.753,0 -186.943,-83.919 -186.943,-189.671 0,-108.482 81.19,-186.943 186.943,-186.943 108.481,0 189.672,78.461 189.672,186.943 0,105.752 -81.191,189.671 -189.672,189.671"
             style="fill:#111111;fill-opacity:1;fill-rule:nonzero;stroke:none"
             id="path24" /></g><g
           id="g26"
           transform="translate(1524.2399,26.932)"><path
             d="m 0,0 v 75.732 c -54.582,-27.291 -105.752,-5.458 -105.752,54.582 v 156.923 h 97.565 v 73.003 h -97.565 v 92.789 h -75.733 V 143.277 C -181.485,16.375 -94.836,-27.291 0,0"
             style="fill:#111111;fill-opacity:1;fill-rule:nonzero;stroke:none"
             id="path28" /></g><g
           id="g30"
           transform="translate(753.9537,94.4771)"><path
             d="m 0,0 c -60.04,0 -108.482,49.124 -108.482,111.211 0,65.498 48.442,113.939 108.482,113.939 62.087,0 111.21,-48.441 111.21,-113.939 C 111.21,49.124 62.087,0 0,0 m 0,300.882 c -105.752,0 -186.943,-83.919 -186.943,-189.671 0,-108.482 81.191,-186.943 186.943,-186.943 108.481,0 189.672,78.461 189.672,186.943 0,105.752 -81.191,189.671 -189.672,189.671"
             style="fill:#111111;fill-opacity:1;fill-rule:nonzero;stroke:none"
             id="path32" /></g><g
           id="g34"
           transform="translate(268.1753,97.2062)"><path
             d="m 0,0 c -103.023,0 -178.756,78.461 -178.756,186.943 0,111.21 75.733,193.083 178.756,193.083 105.752,0 182.167,-81.873 182.167,-193.083 C 182.167,78.461 105.752,0 0,0 m 0,455.758 c -148.736,0 -262.675,-113.939 -262.675,-268.815 0,-148.736 113.939,-265.404 262.675,-265.404 152.147,0 266.086,116.668 266.086,265.404 0,154.876 -113.939,268.815 -266.086,268.815"
             style="fill:#111111;fill-opacity:1;fill-rule:nonzero;stroke:none"
             id="path36" /></g><g
           id="g38"
           transform="translate(521.8218,7.0354)"><path
             d="m 0,0 c -148.662,16.208 -243.797,92.282 -290.842,232.573 l 74.39,24.947 C -179.142,146.256 -109.763,90.894 8.504,78.001 Z"
             style="fill:#111111;fill-opacity:1;fill-rule:nonzero;stroke:none"
             id="path40" /></g></g></g></g></svg>
