<svg xmlns:xlink="http://www.w3.org/1999/xlink"  xmlns="http://www.w3.org/2000/svg" width="143" height="37" viewBox="0 0 169 42">
    <g fill="#000" fill-rule="evenodd">
        <path d="M59 16v13h-1.596V18.875l-3.979 8.864-3.81-8.512V29H48V16h2.027l3.398 7.733L56.804 16zM72 16l-3.705 7.391V29h-1.59v-5.609L63 16h1.753l2.747 5.757L70.247 16zM89 16v9.18c0 1.09-.355 1.99-1.064 2.7C87.192 28.627 86.213 29 85 29c-1.248 0-2.238-.373-2.97-1.12-.687-.698-1.03-1.591-1.03-2.681V16h1.476v9.18c0 .283.035.54.103.772.092.306.247.57.464.79.446.453 1.099.679 1.957.679.824 0 1.465-.226 1.923-.68.412-.416.618-.936.618-1.56V16H89zM104 16v13h-1.818l-5.664-10.403V29H95V16h1.818l5.682 10.367V16zM108 29h2V16h-2zM119.462 24.753a2.29 2.29 0 0 0-.46-.649 3.284 3.284 0 0 0-.671-.5c-.26-.149-.548-.31-.866-.483-.401-.21-.79-.426-1.167-.649a5.085 5.085 0 0 1-.972-.76 3.426 3.426 0 0 1-.672-1.02c-.165-.383-.247-.847-.247-1.39 0-.372.07-.749.212-1.132.13-.396.33-.754.6-1.076a3.088 3.088 0 0 1 1.008-.779c.4-.21.866-.315 1.397-.315.53 0 .99.1 1.379.297.389.185.718.396.99.63.306.272.57.575.795.909l-1.008.909a3.502 3.502 0 0 0-.548-.65 3.436 3.436 0 0 0-.69-.444 2.024 2.024 0 0 0-.918-.204c-.307 0-.578.049-.813.148-.236.111-.43.26-.584.445a1.517 1.517 0 0 0-.353.593 1.901 1.901 0 0 0-.124.668c0 .322.059.6.177.835.117.235.283.451.495.649.212.185.47.364.778.537.306.174.647.36 1.025.557.424.21.807.433 1.149.667.353.223.648.477.883.76.236.273.419.594.549.965.129.37.194.81.194 1.317a3.6 3.6 0 0 1-.265 1.41 3.331 3.331 0 0 1-.743 1.075 3.172 3.172 0 0 1-1.096.686c-.412.161-.866.241-1.36.241-.66 0-1.215-.136-1.662-.408-.46-.272-.825-.575-1.096-.909a4.455 4.455 0 0 1-.778-1.297l1.114-.761c.153.359.336.68.548.964.2.248.453.47.76.668.306.21.677.315 1.113.315.271 0 .53-.043.778-.13.248-.086.471-.216.672-.389.188-.161.341-.365.46-.612a1.96 1.96 0 0 0 .176-.853c0-.322-.053-.6-.159-.835M130.51 17.588c-1.217 0-2.17.437-2.857 1.311-.712.9-1.068 2.1-1.068 3.601 0 1.503.356 2.703 1.068 3.6.688.875 1.64 1.312 2.856 1.312.59 0 1.124-.117 1.603-.35a3.566 3.566 0 0 0 1.198-.961c.749-.935 1.124-2.136 1.124-3.6 0-1.466-.381-2.66-1.142-3.583a3.432 3.432 0 0 0-1.216-.979 3.524 3.524 0 0 0-1.567-.35m0-1.589c1.634 0 2.967.634 3.998 1.902.995 1.231 1.493 2.764 1.493 4.598 0 1.847-.492 3.38-1.474 4.598-1.02 1.268-2.358 1.902-4.017 1.902-1.72 0-3.083-.634-4.09-1.902-.946-1.194-1.419-2.726-1.419-4.598 0-1.871.473-3.404 1.419-4.598 1.007-1.268 2.37-1.902 4.09-1.902M147 16v1.52h-5.433v3.896h4.139v1.501h-4.139V29H140V16zM159 16v1.52h-3.25V29h-1.5V17.52H151V16zM4.147 15.95a90.77 90.77 0 0 0-.532-1.221L.271 7.234C.122 6.9 0 6.927 0 7.294v34.038c0 .367.293.668.651.668H6.35A.662.662 0 0 0 7 41.332V23.336c0-.367-.117-.944-.26-1.281l-2.593-6.106zM34.731 7.235l-3.308 7.492c-.148.335-.385.885-.526 1.223l-2.561 6.105a8.218 8.218 0 0 1-.297.66c-.021.024-.039.345-.039.713v17.904c0 .367.293.668.651.668h5.698c.358 0 .651-.3.651-.668V7.294c0-.367-.121-.394-.269-.06M34.555 0h-5.744c-.366 0-.792.274-.947.61l-7.219 15.648c-.154.335-.393.89-.53 1.232l-2.353 6.142c-.064.18-.15.265-.234.259v-.016c-.01.005-.019.008-.028.01-.01-.002-.018-.005-.028-.01v.016c-.084.006-.17-.08-.234-.259l-2.352-6.142a32.672 32.672 0 0 0-.531-1.232L7.135.609C6.982.274 6.556 0 6.19 0H.445C.079 0-.097.275.055.612l5.815 12.92c.151.337.278.614.281.617l.012.018.269.63 3.684 8.658c.145.34.377.898.516 1.24 0 0 .62 1.521.987 2.476.028.074.725 1.962.983 2.78.023.07.446 1.547.458 1.596.131.516.534 2.701.542 2.774.03.215.058.435.082.657a30.624 30.624 0 0 1 .131 1.606c.008.146.135 2.866.135 3.235v1.509c0 .37.3.672.666.672h5.768a.67.67 0 0 0 .666-.672v-1.509c0-.37.127-3.09.135-3.235a31.607 31.607 0 0 1 .131-1.606c.024-.222.052-.442.082-.657.008-.073.41-2.258.542-2.774.012-.049.435-1.525.458-1.596.258-.818.955-2.706.983-2.78.366-.955.987-2.477.987-2.477.14-.341.371-.9.516-1.239l3.684-8.658.269-.63.012-.018c.003-.003.13-.28.28-.617L34.947.612C35.097.275 34.92 0 34.556 0"></path>
    </g>
</svg>