<?xml version="1.0" encoding="utf-8"?>
<!-- Generator: Adobe Illustrator 22.1.0, SVG Export Plug-In . SVG Version: 6.00 Build 0)  -->
<svg version="1.1" id="Calque_1" xmlns="http://www.w3.org/2000/svg" xmlns:xlink="http://www.w3.org/1999/xlink" x="0px" y="0px"
	 viewBox="0 0 1302 508" style="enable-background:new 0 0 1302 508;" xml:space="preserve">
<style type="text/css">
	.st0{fill:#4A4A4A;}
	.st1{fill:none;stroke:#59C684;stroke-width:12;stroke-linecap:round;stroke-miterlimit:10;}
	.st2{fill:#59C684;}
</style>
<title>Plan de travail 1</title>
<g>
	<path class="st0" d="M495.5,203.2h35.8l25.8,104.5l28.8-104.5h27.7l28.8,104.5l25.8-104.5H704l-41.1,149.2H624l-24.3-88l-24.3,88
		h-38.8L495.5,203.2z"/>
	<path class="st0" d="M812.7,319.6v32.8h-93.8V203.2h92.7V236H753v24.7h53.3v32.4H753v26.4h59.7V319.6z"/>
	<path class="st0" d="M919.3,319.6v32.8h-87.4V203.2H866v116.4H919.3z"/>
	<path class="st0" d="M986.4,295.1v57.3h-34.1v-57.3l-50.1-91.9H941l28.4,57.6l28.4-57.6h38.8L986.4,295.1z"/>
	<path class="st0" d="M1160.1,308.7c0,26.4-21.5,43.7-48.2,43.7h-62.7V203.2h58.4c26,0,47.1,16.8,47.1,42.6c0,12.4-4.9,22.2-13,29.2
		C1152.9,282.1,1160.1,293.6,1160.1,308.7z M1083.4,235.2v26.4h24.3c7.7,0,13-5.5,13-13.2c0-7.7-5.1-13.2-13-13.2L1083.4,235.2
		L1083.4,235.2z M1126,306.2c0-8.3-5.5-14.3-14.1-14.3h-28.6v28.6h28.6C1120.5,320.4,1126,314.5,1126,306.2z"/>
</g>
<path class="st1" d="M189.2,445.1"/>
<path class="st2" d="M421,90.1c-1.2-0.2-2.5,0-3.5,0.5l0,0l-71.9,33.3l-23,133.5l-21.2-44c-1-2.1-3.1-3.4-5.3-3.4c0,0,0,0-0.1,0
	c-0.9,0-1.8,0.2-2.5,0.6l0,0l-88.2,41.2l-21-155.5c-0.1-0.6-0.2-1.2-0.4-1.7c-0.6-2.4-2.6-4.1-5-4.5c-0.8-0.2-1.7-0.3-2.6-0.3
	c-0.2,0-0.5,0-0.7,0.1h-0.8l-73.3,37.7l42.9,294.8l72-39.7c1.4-0.7,2.5-1.8,3.4-3c0.2-0.3,0.4-0.6,0.6-0.9l32.1-63.4l46.7,105.9
	l76.7-40c0.2-0.1,0.4-0.3,0.6-0.4c0,0,0.1-0.1,0.1-0.1c0.2-0.2,0.4-0.3,0.6-0.5c0,0,0,0,0,0c0.2-0.2,0.4-0.4,0.6-0.6
	c0,0,0.1-0.1,0.1-0.1c0.2-0.2,0.3-0.5,0.5-0.7c0,0,0-0.1,0-0.1c0.1-0.2,0.2-0.5,0.3-0.7c0,0,0-0.1,0-0.1c0.1-0.3,0.2-0.5,0.2-0.8
	c0,0,0,0,0-0.1l47-280C426.5,93.7,424.3,90.6,421,90.1z M153.7,403.6l-39.1-269.2l58.5-30.1l35.5,269L153.7,403.6z M304.9,404.7
	l-45.5-103.2l36.4-71.9l69.2,143.8L304.9,404.7z"/>
</svg>
